<svg width="157" height="189" viewBox="0 0 157 189" fill="none" xmlns="http://www.w3.org/2000/svg">
<path d="M1.15857 36.1235C14.6586 38.9568 46.0586 78.6235 53.6586 92.6235C63.1586 110.123 76.1586 129.123 74.6586 172.623" stroke="#4F3333" stroke-width="4"/>
<path d="M13 68C20.3965 68 36.9516 70 44 78" stroke="#4F3333" stroke-width="4"/>
<path d="M48.8577 2C60.5073 9.38666 76.0068 57.5444 78.2159 73.3204C80.9773 93.0403 86.4906 115.392 69.8344 155.605" stroke="#4F3333" stroke-width="4"/>
<path d="M74.6586 23.1235C75.819 27.7325 76.623 38.5 70.5559 44.698" stroke="#4F3333" stroke-width="4"/>
<path d="M142.901 45.3762C129.756 49.5593 102.525 92.1961 96.3792 106.892C88.6963 125.263 77.6829 145.479 83.5713 188.605" stroke="#4F3333" stroke-width="4"/>
<path d="M107.659 58.1235C107.818 61.39 110.298 68.5979 118.949 71.2971" stroke="#4F3333" stroke-width="4"/>
</svg>
